<svg xmlns="http://www.w3.org/2000/svg" version="1.1" xmlns:xlink="http://www.w3.org/1999/xlink" xmlns:svgjs="http://svgjs.dev/svgjs" width="1920" height="800" preserveAspectRatio="none" viewBox="0 0 1920 800"><g mask="url(&quot;#SvgjsMask1104&quot;)" fill="none"><rect width="1920" height="800" x="0" y="0" fill="rgba(9, 54, 1, 1)"></rect><path d="M747 694L746 223" stroke-width="10" stroke="url(&quot;#SvgjsLinearGradient1105&quot;)" stroke-linecap="round" class="Up"></path><path d="M1504 459L1503 68" stroke-width="6" stroke="url(&quot;#SvgjsLinearGradient1105&quot;)" stroke-linecap="round" class="Up"></path><path d="M657 404L656 16" stroke-width="8" stroke="url(&quot;#SvgjsLinearGradient1106&quot;)" stroke-linecap="round" class="Down"></path><path d="M1348 250L1347 -224" stroke-width="6" stroke="url(&quot;#SvgjsLinearGradient1106&quot;)" stroke-linecap="round" class="Down"></path><path d="M1481 653L1480 1119" stroke-width="8" stroke="url(&quot;#SvgjsLinearGradient1105&quot;)" stroke-linecap="round" class="Up"></path><path d="M348 48L347 485" stroke-width="8" stroke="url(&quot;#SvgjsLinearGradient1105&quot;)" stroke-linecap="round" class="Up"></path><path d="M889 365L888 750" stroke-width="6" stroke="url(&quot;#SvgjsLinearGradient1106&quot;)" stroke-linecap="round" class="Down"></path><path d="M983 142L982 697" stroke-width="8" stroke="url(&quot;#SvgjsLinearGradient1105&quot;)" stroke-linecap="round" class="Up"></path><path d="M505 309L504 632" stroke-width="10" stroke="url(&quot;#SvgjsLinearGradient1105&quot;)" stroke-linecap="round" class="Up"></path><path d="M158 172L157 649" stroke-width="10" stroke="url(&quot;#SvgjsLinearGradient1105&quot;)" stroke-linecap="round" class="Up"></path><path d="M783 521L782 899" stroke-width="6" stroke="url(&quot;#SvgjsLinearGradient1105&quot;)" stroke-linecap="round" class="Up"></path><path d="M41 469L40 746" stroke-width="8" stroke="url(&quot;#SvgjsLinearGradient1105&quot;)" stroke-linecap="round" class="Up"></path><path d="M1144 119L1143 603" stroke-width="8" stroke="url(&quot;#SvgjsLinearGradient1106&quot;)" stroke-linecap="round" class="Down"></path><path d="M398 46L397 297" stroke-width="8" stroke="url(&quot;#SvgjsLinearGradient1106&quot;)" stroke-linecap="round" class="Down"></path><path d="M631 403L630 60" stroke-width="6" stroke="url(&quot;#SvgjsLinearGradient1106&quot;)" stroke-linecap="round" class="Down"></path><path d="M1551 595L1550 62" stroke-width="6" stroke="url(&quot;#SvgjsLinearGradient1106&quot;)" stroke-linecap="round" class="Down"></path><path d="M943 581L942 1132" stroke-width="10" stroke="url(&quot;#SvgjsLinearGradient1106&quot;)" stroke-linecap="round" class="Down"></path><path d="M1815 225L1814 645" stroke-width="8" stroke="url(&quot;#SvgjsLinearGradient1105&quot;)" stroke-linecap="round" class="Up"></path><path d="M83 340L82 759" stroke-width="10" stroke="url(&quot;#SvgjsLinearGradient1106&quot;)" stroke-linecap="round" class="Down"></path><path d="M1095 249L1094 -225" stroke-width="10" stroke="url(&quot;#SvgjsLinearGradient1105&quot;)" stroke-linecap="round" class="Up"></path><path d="M287 252L286 477" stroke-width="6" stroke="url(&quot;#SvgjsLinearGradient1106&quot;)" stroke-linecap="round" class="Down"></path><path d="M915 582L914 153" stroke-width="6" stroke="url(&quot;#SvgjsLinearGradient1105&quot;)" stroke-linecap="round" class="Up"></path><path d="M222 445L221 183" stroke-width="10" stroke="url(&quot;#SvgjsLinearGradient1105&quot;)" stroke-linecap="round" class="Up"></path><path d="M1917 221L1916 447" stroke-width="6" stroke="url(&quot;#SvgjsLinearGradient1105&quot;)" stroke-linecap="round" class="Up"></path><path d="M87 368L86 39" stroke-width="8" stroke="url(&quot;#SvgjsLinearGradient1105&quot;)" stroke-linecap="round" class="Up"></path><path d="M1049 176L1048 -360" stroke-width="8" stroke="url(&quot;#SvgjsLinearGradient1106&quot;)" stroke-linecap="round" class="Down"></path><path d="M702 455L701 64" stroke-width="6" stroke="url(&quot;#SvgjsLinearGradient1106&quot;)" stroke-linecap="round" class="Down"></path><path d="M1168 752L1167 1257" stroke-width="6" stroke="url(&quot;#SvgjsLinearGradient1106&quot;)" stroke-linecap="round" class="Down"></path><path d="M1674 483L1673 74" stroke-width="8" stroke="url(&quot;#SvgjsLinearGradient1106&quot;)" stroke-linecap="round" class="Down"></path><path d="M1410 362L1409 132" stroke-width="10" stroke="url(&quot;#SvgjsLinearGradient1106&quot;)" stroke-linecap="round" class="Down"></path><path d="M1554 574L1553 800" stroke-width="6" stroke="url(&quot;#SvgjsLinearGradient1106&quot;)" stroke-linecap="round" class="Down"></path><path d="M693 19L692 334" stroke-width="10" stroke="url(&quot;#SvgjsLinearGradient1105&quot;)" stroke-linecap="round" class="Up"></path><path d="M690 757L689 1251" stroke-width="6" stroke="url(&quot;#SvgjsLinearGradient1105&quot;)" stroke-linecap="round" class="Up"></path><path d="M288 507L287 793" stroke-width="8" stroke="url(&quot;#SvgjsLinearGradient1106&quot;)" stroke-linecap="round" class="Down"></path><path d="M1374 672L1373 278" stroke-width="6" stroke="url(&quot;#SvgjsLinearGradient1106&quot;)" stroke-linecap="round" class="Down"></path><path d="M782 110L781 -374" stroke-width="8" stroke="url(&quot;#SvgjsLinearGradient1105&quot;)" stroke-linecap="round" class="Up"></path><path d="M111 219L110 -273" stroke-width="10" stroke="url(&quot;#SvgjsLinearGradient1105&quot;)" stroke-linecap="round" class="Up"></path><path d="M1027 642L1026 930" stroke-width="8" stroke="url(&quot;#SvgjsLinearGradient1105&quot;)" stroke-linecap="round" class="Up"></path><path d="M523 624L522 1202" stroke-width="8" stroke="url(&quot;#SvgjsLinearGradient1106&quot;)" stroke-linecap="round" class="Down"></path><path d="M247 725L246 279" stroke-width="8" stroke="url(&quot;#SvgjsLinearGradient1105&quot;)" stroke-linecap="round" class="Up"></path><path d="M173 343L172 733" stroke-width="10" stroke="url(&quot;#SvgjsLinearGradient1106&quot;)" stroke-linecap="round" class="Down"></path><path d="M174 226L173 670" stroke-width="6" stroke="url(&quot;#SvgjsLinearGradient1105&quot;)" stroke-linecap="round" class="Up"></path><path d="M505 374L504 605" stroke-width="6" stroke="url(&quot;#SvgjsLinearGradient1105&quot;)" stroke-linecap="round" class="Up"></path><path d="M1173 91L1172 587" stroke-width="10" stroke="url(&quot;#SvgjsLinearGradient1106&quot;)" stroke-linecap="round" class="Down"></path><path d="M1429 789L1428 1324" stroke-width="8" stroke="url(&quot;#SvgjsLinearGradient1106&quot;)" stroke-linecap="round" class="Down"></path><path d="M770 213L769 -52" stroke-width="6" stroke="url(&quot;#SvgjsLinearGradient1105&quot;)" stroke-linecap="round" class="Up"></path><path d="M487 275L486 693" stroke-width="10" stroke="url(&quot;#SvgjsLinearGradient1105&quot;)" stroke-linecap="round" class="Up"></path><path d="M1123 200L1122 -297" stroke-width="6" stroke="url(&quot;#SvgjsLinearGradient1105&quot;)" stroke-linecap="round" class="Up"></path></g><defs><mask id="SvgjsMask1104"><rect width="1920" height="800" fill="#ffffff"></rect></mask><linearGradient x1="0%" y1="100%" x2="0%" y2="0%" id="SvgjsLinearGradient1105"><stop stop-color="rgba(255, 255, 255, 0)" offset="0"></stop><stop stop-color="rgba(255, 255, 255, 1)" offset="1"></stop></linearGradient><linearGradient x1="0%" y1="0%" x2="0%" y2="100%" id="SvgjsLinearGradient1106"><stop stop-color="rgba(255, 255, 255, 0)" offset="0"></stop><stop stop-color="rgba(255, 255, 255, 1)" offset="1"></stop></linearGradient></defs></svg>